<?xml version="1.0" encoding="utf-8"?>
<!-- Generator: Adobe Illustrator 27.8.1, SVG Export Plug-In . SVG Version: 6.00 Build 0)  -->
<svg version="1.1" id="レイヤー_1" xmlns="http://www.w3.org/2000/svg" xmlns:xlink="http://www.w3.org/1999/xlink" x="0px"
	 y="0px" viewBox="0 0 1280 820" style="enable-background:new 0 0 1280 820;" xml:space="preserve">
<style type="text/css">
	.st0{fill:#036DD7;}
</style>
<rect x="2596.7" y="-4.3" width="1286.6" height="832.7"/>
<g>
	<g>
		<g>
			<path d="M3284.7,298.5c0-8.2-6.7-15-15-15s-15,6.7-15,15c0,8.2,6.7,15,15,15S3284.7,306.8,3284.7,298.5z"/>
			<path d="M3229.2,386.8c-6.3-1.8-12.9,1.8-14.7,8.1c-1.8,6.3,1.8,12.9,8.1,14.7c6.3,1.8,12.9-1.8,14.7-8.1
				C3239.1,395.2,3235.4,388.6,3229.2,386.8z"/>
			<path d="M3196.2,305.4c4.3-0.8,7.2-5,6.4-9.3s-5-7.2-9.3-6.4c-4.3,0.8-7.2,5-6.4,9.3S3191.8,306.2,3196.2,305.4z"/>
			<path d="M3319.6,289.6c-5.2,0-9.4,4.2-9.4,9.4c0,5.2,4.2,9.4,9.4,9.4s9.4-4.2,9.4-9.4C3329.1,293.8,3324.8,289.6,3319.6,289.6z"
				/>
			<circle cx="3199" cy="346.2" r="15"/>
			<ellipse transform="matrix(0.7071 -0.7071 0.7071 0.7071 696.8575 2431.3828)" cx="3283.4" cy="374.5" rx="18.6" ry="18.6"/>
			<path d="M3277.4,319.8c-0.3-0.8-1.1-1.2-1.9-0.9c-0.7,0.2-1.1,0.9-1,1.6c0,0.1,0,0.2,0.1,0.3l4.3,31.2c0.2,0.7,0.9,1.1,1.6,1
				c0.1,0,0.2,0,0.3-0.1c0.7-0.2,1.1-0.9,1-1.6c0-0.1,0-0.2-0.1-0.3L3277.4,319.8z"/>
			<path d="M3257.4,365.3L3221,352c-0.8-0.3-1.6,0.1-1.9,0.9c-0.1,0.2-0.1,0.3-0.1,0.5c0,0.6,0.4,1.2,1,1.4l36.4,13.4
				c0.2,0.1,0.3,0.1,0.5,0.1c0.6,0,1.2-0.4,1.4-1c0.1-0.2,0.1-0.3,0.1-0.5C3258.4,366.1,3258,365.6,3257.4,365.3z"/>
			<path d="M3218.1,335.8c0.3,0.5,0.9,0.7,1.4,0.6c0.2,0,0.5-0.1,0.7-0.3l30.6-21.7c0.5-0.3,0.7-0.9,0.6-1.4c0-0.2-0.1-0.5-0.3-0.7
				c-0.5-0.7-1.4-0.8-2.1-0.3l-30.6,21.7c-0.5,0.3-0.7,0.9-0.6,1.4C3217.9,335.4,3218,335.6,3218.1,335.8z"/>
			<path d="M3195.5,310.4c-0.8,0.1-1.4,0.8-1.4,1.6l1.1,12.5v0.1c0.1,0.8,0.8,1.3,1.6,1.2h0.1c0.8-0.1,1.3-0.8,1.2-1.6l-1.1-12.5
				v-0.1C3197,310.9,3196.3,310.4,3195.5,310.4z"/>
			<path d="M3215.2,383.5c0.3,0.1,0.7,0.1,1.1-0.1c0.4-0.2,0.7-0.5,0.8-0.9c0.1-0.3,0.1-0.7-0.1-1.1l-7.6-15.1c-0.4-0.7-1.3-1-2-0.7
				c-0.4,0.2-0.7,0.5-0.8,0.9c-0.1,0.3-0.1,0.7,0.1,1.1l7.6,15.1C3214.4,383.2,3214.8,383.4,3215.2,383.5z"/>
			<path d="M3303,297.4l-8.4-0.1l0,0c-0.8,0-1.5,0.7-1.5,1.5l0,0c0,0.8,0.7,1.5,1.5,1.5l8.4,0.1l0,0c0.8,0,1.5-0.7,1.5-1.5l0,0
				C3304.5,298.1,3303.8,297.4,3303,297.4z"/>
		</g>
		<path d="M3462.7,500.1l-85.1-85.1c14.6-22.5,23.2-49.3,23.2-78.1c0-79.2-64.5-143.7-143.7-143.7s-143.7,64.5-143.7,143.7
			s64.5,143.7,143.7,143.7c28.8,0,55.6-8.6,78.1-23.2l85.1,85.1L3462.7,500.1z M3257.1,438.2c-55.9,0-101.3-45.4-101.3-101.3
			s45.4-101.3,101.3-101.3c55.9,0,101.3,45.4,101.3,101.3C3358.4,392.8,3313,438.2,3257.1,438.2z"/>
	</g>
</g>
<g>
	<g>
		<path class="st0" d="M373,389.1l-9.9,9.9c-4.7-4.2-9-6.3-13-6.3c-2.7,0-4.9,0.8-6.7,2.3c-1.8,1.5-2.7,3.4-2.7,5.6s0.7,4,2.2,5.5
			s4.6,3.6,9.3,6.2c6.7,3.8,11.2,7.2,13.5,10.3c2.4,3.1,3.7,7.1,3.7,12c0,7.1-2.5,12.8-7.4,17.1c-5,4.2-11.6,6.4-19.7,6.4
			c-11,0-20.1-5-27.3-14.9l11.5-8c4.7,5.7,9.8,8.5,15.1,8.5c3,0,5.5-0.8,7.3-2.4s2.7-3.7,2.7-6.2c0-2.2-0.8-4-2.3-5.4
			c-0.7-0.7-2-1.6-3.9-2.9c-1.9-1.2-4.4-2.7-7.6-4.4c-5.6-3.1-9.5-6.2-11.7-9.2c-2.2-3.1-3.3-7-3.3-11.5c0-6.8,2.5-12.4,7.5-16.9
			s11.3-6.7,19-6.7C358,378.4,365.8,381.9,373,389.1z"/>
		<path class="st0" d="M449.6,388.1l-2.2,17.9c-3.6-4.6-7.1-7.9-10.3-10c-3.2-2-7.1-2.9-11.5-2.9c-6.7,0-12.2,2.5-16.5,7.4
			s-6.4,11.3-6.4,19c0,7.3,2,13.1,6.1,17.4c4.1,4.4,9.4,6.6,15.8,6.6c6.2,0,12.6-2.7,19.3-8l-2.3,18.5c-6.8,2.8-13.3,4.1-19.4,4.1
			c-11,0-19.9-3.6-26.8-10.7c-6.8-7.2-10.3-16.5-10.3-27.9c0-11.7,3.7-21.5,11.1-29.4s16.7-11.9,27.7-11.9
			C432.7,378.4,441.4,381.6,449.6,388.1z"/>
		<path class="st0" d="M486.4,380.8l-9.2,75h-17.6l9.2-75H486.4z M491.9,345.2c0,2.5-0.9,4.8-2.8,6.6c-1.9,1.9-4.1,2.8-6.7,2.8
			s-4.9-1-6.8-2.9c-1.9-2-2.8-4.3-2.8-6.9s0.9-4.8,2.7-6.6c1.9-1.9,4.1-2.8,6.6-2.8c2.6,0,4.9,1,6.8,2.9
			C491,340.2,491.9,342.5,491.9,345.2z"/>
		<path class="st0" d="M536,321.4L525,410l31.5-29.1H580l-39.3,34.2l31.6,40.8H551l-27.3-35.7l-4.4,35.7h-17.6l16.6-134.4H536V321.4
			z"/>
		<path class="st0" d="M612.6,380.8l-9.2,75h-17.6l9.2-75H612.6z M618.1,345.2c0,2.5-0.9,4.8-2.8,6.6c-1.9,1.9-4.1,2.8-6.7,2.8
			s-4.9-1-6.8-2.9c-1.9-2-2.8-4.3-2.8-6.9s0.9-4.8,2.7-6.6c1.9-1.9,4.1-2.8,6.6-2.8c2.6,0,4.9,1,6.8,2.9
			C617.1,340.2,618.1,342.5,618.1,345.2z"/>
		<path class="st0" d="M654,397.1l-7.2,58.7h-17.6l7.2-58.7h-9.9l2-16.3h10l4.3-34.8h17.6l-4.3,34.8h16.2l-2,16.3H654z"/>
		<path class="st0" d="M723.4,400.2l-1.8,13.9h-34.3l1.6-13.9H723.4z"/>
		<path class="st0" d="M824.9,380.8l-14.5,117.9h-17.6l6.1-49.8c-7.2,5.7-15,8.6-23.6,8.6c-10.3,0-18.8-3.5-25.5-10.4
			c-6.6-7.1-9.9-16.1-9.9-26.8c0-11.7,3.8-21.5,11.4-29.5c7.6-7.9,17-11.9,28.3-11.9c5.5,0,10.3,0.9,14.3,2.8
			c3.8,1.8,7.8,5.1,12,9.8l1.3-10.7H824.9z M803.5,416.3c0-6.5-2-11.9-6.1-16.2c-4.1-4.3-9.2-6.4-15.3-6.4c-6.9,0-12.7,2.5-17.4,7.6
			c-4.7,5.2-7.1,11.5-7.1,18.8c0,6.5,2,12,6.1,16.4c4.1,4.2,9.3,6.4,15.7,6.4c6.6,0,12.2-2.6,17-7.8
			C801.1,429.9,803.5,423.7,803.5,416.3z"/>
		<path class="st0" d="M914.1,380.8l-5.3,43.6c-0.4,3.7-1,7-1.6,9.7c-0.6,2.8-1.3,5.1-2.1,6.9c-1.5,3.6-4,6.7-7.5,9.5
			c-5.9,4.7-13.8,7-23.5,7c-9.2,0-16.6-2.4-22.1-7.1c-5.5-4.8-8.3-11.2-8.3-19.2c0-1.2,0.1-2.7,0.2-4.3c0.1-1.6,0.3-3.5,0.6-5.7
			l4.9-40.5H867l-5.2,42.1c-0.2,1.8-0.4,3.4-0.5,4.7c-0.1,1.4-0.2,2.5-0.2,3.4c0,7.9,4.6,11.9,13.9,11.9c5,0,8.8-1.3,11.1-3.9
			c2.4-2.6,4-7.2,4.8-13.7l5.5-44.5h17.7V380.8z"/>
		<path class="st0" d="M963.6,321.4l-16.5,134.4h-17.6l16.6-134.4H963.6z"/>
		<path class="st0" d="M1054.5,380.8l-9.2,75h-17.6l1-8.1c-7.5,6.6-15.3,9.9-23.4,9.9c-9.9,0-18-3.4-24.3-10.1s-9.4-15.5-9.4-26.2
			c0-12.4,3.6-22.5,10.7-30.4c7.3-7.9,16.6-11.9,27.9-11.9c5.4,0,9.9,0.9,13.7,2.6c3.8,1.8,7.7,4.8,11.7,9.1l1.2-9.9H1054.5z
			 M1033.1,416.2c0-6.6-1.9-12-5.7-16.2c-3.8-4.2-8.8-6.3-14.8-6.3c-6.6,0-12.1,2.6-16.6,7.7c-4.5,5.2-6.7,11.6-6.7,19.1
			c0,6.6,1.9,12,5.6,16.2c3.7,4.2,8.5,6.3,14.3,6.3c6.5,0,12.1-2.6,16.8-7.9C1030.7,429.8,1033.1,423.4,1033.1,416.2z"/>
		<path class="st0" d="M1134.5,388.1l-2.2,17.9c-3.6-4.6-7.1-7.9-10.3-10c-3.2-2-7.1-2.9-11.5-2.9c-6.7,0-12.2,2.5-16.5,7.4
			s-6.4,11.3-6.4,19c0,7.3,2,13.1,6,17.4c4.1,4.4,9.4,6.6,15.8,6.6c6.2,0,12.6-2.7,19.3-8l-2.3,18.5c-6.8,2.8-13.3,4.1-19.4,4.1
			c-11,0-19.9-3.6-26.8-10.7c-6.8-7.2-10.3-16.5-10.3-27.9c0-11.7,3.7-21.5,11.1-29.4s16.7-11.9,27.7-11.9
			C1117.7,378.4,1126.3,381.6,1134.5,388.1z"/>
		<path class="st0" d="M1198.5,389.1l-10,9.9c-4.7-4.2-9-6.3-13-6.3c-2.7,0-4.9,0.8-6.7,2.3c-1.8,1.5-2.7,3.4-2.7,5.6s0.7,4,2.2,5.5
			s4.6,3.6,9.3,6.2c6.7,3.8,11.2,7.2,13.5,10.3c2.4,3.1,3.7,7.1,3.7,12c0,7.1-2.5,12.8-7.4,17.1c-5,4.2-11.6,6.4-19.7,6.4
			c-11,0-20.1-5-27.3-14.9l11.5-8c4.7,5.7,9.8,8.5,15.1,8.5c3,0,5.5-0.8,7.3-2.4s2.7-3.7,2.7-6.2c0-2.2-0.8-4-2.3-5.4
			c-0.7-0.7-2-1.6-3.9-2.9c-1.9-1.2-4.4-2.7-7.6-4.4c-5.6-3.1-9.5-6.2-11.7-9.2c-2.2-3.1-3.3-7-3.3-11.5c0-6.8,2.5-12.4,7.5-16.9
			s11.3-6.7,19-6.7C1183.5,378.4,1191.4,381.9,1198.5,389.1z"/>
	</g>
	<g>
		<path class="st0" d="M186.9,463.4c-29.4,0-53.4-24-53.4-53.4s24-53.4,53.4-53.4s53.4,24,53.4,53.4c0,10.7-3.2,20.6-8.6,29
			l25.5,25.5c11.7-15,18.7-33.9,18.7-54.5c0-49-39.7-88.7-88.7-88.7S98.5,361,98.5,410s39.7,88.7,88.7,88.7
			c20.4,0,39.2-6.9,54.2-18.4l-25.5-25.5C207.6,460.2,197.6,463.4,186.9,463.4z"/>
		<path class="st0" d="M186.9,372.3c-20.7,0-37.6,16.8-37.6,37.6s16.8,37.7,37.6,37.7s37.7-16.8,37.6-37.7
			C224.5,389.2,207.7,372.3,186.9,372.3z M172.4,408.9l11.4-8.1c0.3-0.2,0.6-0.1,0.8,0.1c0.1,0,0.1,0.1,0.1,0.2
			c0.1,0.2,0,0.4-0.2,0.5l-11.4,8.1c0,0.1-0.1,0.1-0.2,0.1c-0.2,0.1-0.4,0-0.5-0.2c0-0.1-0.1-0.2-0.2-0.2
			C172.1,409.2,172.2,409,172.4,408.9z M163.2,392.4c1.7-0.3,3.2,0.8,3.5,2.4c0.3,1.7-0.8,3.2-2.4,3.5c-1.6,0.3-3.2-0.8-3.5-2.4
			C160.5,394.2,161.6,392.7,163.2,392.4z M163.5,400.7c0-0.3,0.2-0.6,0.5-0.6s0.6,0.2,0.7,0.5c0,0.1,0,0.1,0,0.1l0.4,4.7
			c0,0.3-0.2,0.5-0.5,0.6c-0.1,0-0.1,0-0.1,0c-0.3,0-0.5-0.2-0.6-0.5c0-0.1,0-0.1,0-0.1L163.5,400.7z M159.7,413.5
			c0-3.1,2.5-5.6,5.6-5.6s5.6,2.5,5.6,5.6s-2.5,5.6-5.6,5.6S159.7,416.6,159.7,413.5z M168.2,421.1c0.1-0.1,0.2-0.2,0.3-0.3
			c0.2-0.2,0.6-0.1,0.7,0.2l2.8,5.6c0,0.1,0,0.3,0,0.4c-0.1,0.1-0.2,0.2-0.3,0.3c-0.1,0-0.3,0-0.4,0c-0.1,0-0.2-0.1-0.3-0.2
			l-2.8-5.6C168.2,421.4,168.2,421.2,168.2,421.1z M179.5,434c-0.7,2.3-3.2,3.7-5.5,3s-3.7-3.2-3-5.5s3.2-3.7,5.5-3
			C178.9,429.2,180.2,431.7,179.5,434z M187.4,421.2c-0.1,0.3-0.3,0.4-0.5,0.4c-0.1,0-0.1,0-0.2,0l-13.5-5c-0.3-0.1-0.4-0.3-0.4-0.5
			c0-0.1,0-0.1,0-0.2c0.1-0.2,0.4-0.4,0.7-0.3l13.5,5c0.2,0,0.4,0.2,0.4,0.4C187.4,421.1,187.4,421.1,187.4,421.2z M186,395.7
			c0-3.1,2.5-5.6,5.6-5.6s5.6,2.5,5.6,5.6s-2.5,5.6-5.6,5.6C188.5,401.3,186,398.8,186,395.7z M196.1,415.3L196.1,415.3
			c0,0.4-0.2,0.6-0.4,0.7h-0.1c-0.3,0-0.5-0.2-0.6-0.4l-1.6-11.6v-0.1c0-0.3,0.2-0.5,0.4-0.6c0.3-0.1,0.6,0,0.7,0.3L196.1,415.3z
			 M196.7,430.8c-3.8,0-6.9-3.1-6.9-6.9s3.1-6.9,6.9-6.9c3.8,0,6.9,3.1,6.9,6.9C203.6,427.7,200.5,430.8,196.7,430.8z M204,396.5
			h-3.1c-0.4,0-0.6-0.3-0.6-0.6c0-0.4,0.3-0.6,0.6-0.6h3.1c0.3,0,0.5,0.3,0.6,0.6C204.6,396.3,204.3,396.5,204,396.5z M210.2,399.4
			c-1.9,0-3.5-1.6-3.5-3.5s1.6-3.5,3.5-3.5s3.5,1.6,3.5,3.5S212.1,399.4,210.2,399.4z"/>
	</g>
</g>
</svg>
