<?xml version="1.0" encoding="utf-8"?>
<!-- Generator: Adobe Illustrator 27.8.1, SVG Export Plug-In . SVG Version: 6.00 Build 0)  -->
<svg version="1.1" id="レイヤー_1" xmlns="http://www.w3.org/2000/svg" xmlns:xlink="http://www.w3.org/1999/xlink" x="0px"
	 y="0px" viewBox="0 0 1280 820" style="enable-background:new 0 0 1280 820;" xml:space="preserve">
<style type="text/css">
	.st0{fill:#FFFFFF;}
</style>
<g>
	<g>
		<path class="st0" d="M2945.1,630.3l-8.1,8.1c-3.8-3.4-7.3-5.1-10.6-5.1c-2.2,0-4,0.6-5.5,1.8c-1.4,1.2-2.2,2.8-2.2,4.6
			s0.6,3.3,1.8,4.5c1.2,1.3,3.7,2.9,7.6,5.1c5.5,3.1,9.2,5.9,11,8.4c2,2.5,3,5.8,3,9.8c0,5.8-2,10.4-6,13.9c-4.1,3.5-9.5,5.2-16,5.2
			c-9,0-16.4-4-22.3-12.1l9.4-6.6c3.8,4.6,8,6.9,12.3,6.9c2.5,0,4.4-0.6,5.9-1.9s2.2-3,2.2-5.1c0-1.8-0.6-3.3-1.9-4.4
			c-0.6-0.6-1.7-1.3-3.2-2.3s-3.6-2.2-6.2-3.6c-4.6-2.6-7.8-5-9.5-7.5c-1.8-2.6-2.7-5.7-2.7-9.3c0-5.5,2-10.1,6.1-13.8
			c4.1-3.6,9.2-5.4,15.5-5.4C2932.8,621.6,2939.2,624.5,2945.1,630.3z"/>
		<path class="st0" d="M3007.5,629.5l-1.8,14.6c-2.9-3.8-5.8-6.5-8.4-8.1c-2.6-1.6-5.8-2.4-9.3-2.4c-5.4,0-9.9,2-13.4,6
			s-5.3,9.2-5.3,15.5c0,5.9,1.6,10.7,4.9,14.2c3.3,3.6,7.6,5.4,12.9,5.4c5.1,0,10.3-2.2,15.7-6.6l-1.9,15.1
			c-5.5,2.2-10.8,3.4-15.8,3.4c-9,0-16.2-2.9-21.9-8.8c-5.6-5.8-8.4-13.4-8.4-22.7c0-9.6,3-17.5,9-23.9c6.1-6.4,13.6-9.7,22.6-9.7
			C2993.7,621.6,3000.8,624.2,3007.5,629.5z"/>
		<path class="st0" d="M3037.5,623.6l-7.5,61.1h-14.3l7.5-61.1H3037.5z M3042,594.5c0,2.1-0.8,3.9-2.3,5.4s-3.3,2.3-5.4,2.3
			s-4-0.8-5.5-2.3c-1.5-1.6-2.3-3.5-2.3-5.6s0.7-3.9,2.2-5.4s3.3-2.3,5.4-2.3c2.1,0,4,0.8,5.5,2.4
			C3041.2,590.5,3042,592.3,3042,594.5z"/>
		<path class="st0" d="M3077.9,575.1l-8.9,72.2l25.7-23.7h19.1l-32,27.9l25.8,33.2h-17.3l-22.3-29.1l-3.6,29.1H3050l13.5-109.6
			L3077.9,575.1L3077.9,575.1z"/>
		<path class="st0" d="M3140.3,623.6l-7.5,61.1h-14.3l7.5-61.1H3140.3z M3144.8,594.5c0,2.1-0.8,3.9-2.3,5.4s-3.3,2.3-5.4,2.3
			s-4-0.8-5.5-2.3c-1.5-1.6-2.3-3.5-2.3-5.6s0.7-3.9,2.2-5.4s3.3-2.3,5.4-2.3c2.1,0,4,0.8,5.5,2.4
			C3144,590.5,3144.8,592.3,3144.8,594.5z"/>
		<path class="st0" d="M3174.1,636.9l-5.9,47.8h-14.3l5.9-47.8h-8.1l1.6-13.3h8.1l3.5-28.3h14.3l-3.5,28.3h13.2l-1.6,13.3H3174.1z"
			/>
		<path class="st0" d="M3230.7,639.3l-1.4,11.4h-28l1.3-11.4H3230.7z"/>
		<path class="st0" d="M3313.3,623.6l-11.8,96.1h-14.3l5-40.5c-5.8,4.7-12.2,7-19.2,7c-8.4,0-15.3-2.8-20.8-8.5
			c-5.4-5.8-8.1-13.1-8.1-21.9c0-9.6,3.1-17.6,9.3-24s13.9-9.7,23.1-9.7c4.5,0,8.4,0.8,11.7,2.3c3.1,1.5,6.3,4.1,9.8,8l1-8.8
			L3313.3,623.6L3313.3,623.6z M3295.9,652.5c0-5.3-1.7-9.7-5-13.2s-7.5-5.3-12.5-5.3c-5.6,0-10.3,2.1-14.1,6.2
			c-3.9,4.2-5.8,9.3-5.8,15.3c0,5.3,1.7,9.8,5,13.4c3.3,3.5,7.6,5.2,12.8,5.2c5.4,0,10-2.1,13.8-6.4
			C3293.9,663.6,3295.9,658.5,3295.9,652.5z"/>
		<path class="st0" d="M3386,623.6l-4.3,35.6c-0.3,3-0.8,5.7-1.3,7.9s-1.1,4.1-1.7,5.6c-1.2,2.9-3.2,5.5-6.1,7.7
			c-4.8,3.8-11.2,5.7-19.1,5.7c-7.5,0-13.5-1.9-18-5.8c-4.5-3.9-6.7-9.1-6.7-15.6c0-1,0.1-2.2,0.2-3.5c0.1-1.3,0.3-2.9,0.5-4.6l4-33
			h14.3l-4.2,34.3c-0.2,1.5-0.3,2.8-0.4,3.9c-0.1,1.1-0.1,2-0.1,2.8c0,6.4,3.8,9.7,11.4,9.7c4.1,0,7.1-1.1,9.1-3.2
			c1.9-2.1,3.2-5.8,3.9-11.2l4.5-36.3L3386,623.6L3386,623.6z"/>
		<path class="st0" d="M3426.4,575.1L3413,684.7h-14.3l13.5-109.6L3426.4,575.1L3426.4,575.1z"/>
		<path class="st0" d="M3500.5,623.6l-7.5,61.1h-14.3l0.8-6.6c-6.1,5.4-12.5,8-19.1,8c-8.1,0-14.7-2.7-19.8-8.2s-7.7-12.6-7.7-21.3
			c0-10.1,2.9-18.3,8.8-24.8c5.9-6.4,13.5-9.7,22.8-9.7c4.4,0,8.1,0.7,11.2,2.1c3.1,1.4,6.3,3.9,9.5,7.4l1-8H3500.5z M3483,652.4
			c0-5.4-1.6-9.8-4.7-13.2c-3.1-3.4-7.1-5.1-12.1-5.1c-5.4,0-9.9,2.1-13.5,6.3s-5.4,9.4-5.4,15.6c0,5.4,1.5,9.8,4.5,13.2
			s6.9,5.1,11.7,5.1c5.3,0,9.8-2.1,13.7-6.4C3481.1,663.4,3483,658.3,3483,652.4z"/>
		<path class="st0" d="M3565.7,629.5l-1.8,14.6c-2.9-3.8-5.8-6.5-8.4-8.1c-2.6-1.6-5.8-2.4-9.3-2.4c-5.4,0-9.9,2-13.4,6
			s-5.3,9.2-5.3,15.5c0,5.9,1.6,10.7,4.9,14.2c3.3,3.6,7.6,5.4,12.9,5.4c5.1,0,10.3-2.2,15.7-6.6l-1.9,15.1
			c-5.5,2.2-10.8,3.4-15.8,3.4c-9,0-16.2-2.9-21.9-8.8c-5.6-5.8-8.4-13.4-8.4-22.7c0-9.6,3-17.5,9-23.9c6.1-6.4,13.6-9.7,22.6-9.7
			C3551.9,621.6,3559,624.2,3565.7,629.5z"/>
		<path class="st0" d="M3617.8,630.3l-8.1,8.1c-3.8-3.4-7.3-5.1-10.6-5.1c-2.2,0-4,0.6-5.5,1.8s-2.2,2.8-2.2,4.6s0.6,3.3,1.8,4.5
			c1.2,1.3,3.7,2.9,7.6,5.1c5.5,3.1,9.2,5.9,11,8.4c2,2.5,3,5.8,3,9.8c0,5.8-2,10.4-6,13.9c-4.1,3.5-9.4,5.2-16,5.2
			c-9,0-16.4-4-22.3-12.1l9.4-6.6c3.8,4.6,8,6.9,12.3,6.9c2.5,0,4.4-0.6,5.9-1.9c1.5-1.3,2.2-3,2.2-5.1c0-1.8-0.6-3.3-1.9-4.4
			c-0.6-0.6-1.7-1.3-3.2-2.3s-3.6-2.2-6.2-3.6c-4.6-2.6-7.8-5-9.5-7.5c-1.8-2.6-2.7-5.7-2.7-9.3c0-5.5,2-10.1,6.1-13.8
			c4.1-3.6,9.2-5.4,15.5-5.4C3605.6,621.6,3612,624.5,3617.8,630.3z"/>
	</g>
	<g>
		<circle class="st0" cx="3257.8" cy="337.1" r="238.6"/>
	</g>
</g>
<g>
	<g>
		<path class="st0" d="M2991.9,384.4l-9.9,9.9c-4.7-4.2-9-6.3-13-6.3c-2.7,0-4.9,0.8-6.7,2.3s-2.7,3.4-2.7,5.6s0.7,4,2.2,5.5
			s4.6,3.6,9.3,6.2c6.7,3.8,11.2,7.2,13.5,10.3c2.4,3.1,3.7,7.1,3.7,12c0,7.1-2.5,12.8-7.4,17.1c-5,4.2-11.6,6.4-19.7,6.4
			c-11,0-20.1-5-27.3-14.9l11.5-8c4.7,5.7,9.8,8.5,15.1,8.5c3,0,5.5-0.8,7.3-2.4s2.7-3.7,2.7-6.2c0-2.2-0.8-4-2.3-5.4
			c-0.7-0.7-2-1.6-3.9-2.9c-1.9-1.2-4.4-2.7-7.6-4.4c-5.6-3.1-9.5-6.2-11.7-9.2c-2.2-3.1-3.3-7-3.3-11.5c0-6.8,2.5-12.4,7.5-16.9
			s11.3-6.7,19-6.7C2976.9,373.7,2984.8,377.3,2991.9,384.4z"/>
		<path class="st0" d="M3068.5,383.4l-2.2,17.9c-3.6-4.6-7.1-7.9-10.3-10c-3.2-2-7.1-2.9-11.5-2.9c-6.7,0-12.2,2.5-16.5,7.4
			s-6.4,11.3-6.4,19c0,7.3,2,13.1,6.1,17.4c4.1,4.4,9.4,6.6,15.8,6.6c6.2,0,12.6-2.7,19.3-8l-2.3,18.5c-6.8,2.8-13.3,4.1-19.4,4.1
			c-11,0-19.9-3.6-26.8-10.7c-6.8-7.2-10.3-16.5-10.3-27.9c0-11.7,3.7-21.5,11.1-29.4c7.4-7.9,16.7-11.9,27.7-11.9
			C3051.7,373.7,3060.3,376.9,3068.5,383.4z"/>
		<path class="st0" d="M3105.4,376.2l-9.2,75h-17.6l9.2-75H3105.4z M3110.8,340.5c0,2.5-0.9,4.8-2.8,6.6c-1.9,1.9-4.1,2.8-6.7,2.8
			s-4.9-1-6.8-2.9c-1.9-2-2.8-4.3-2.8-6.9s0.9-4.8,2.7-6.6c1.9-1.9,4.1-2.8,6.6-2.8c2.6,0,4.9,1,6.8,2.9
			C3109.9,335.6,3110.8,337.8,3110.8,340.5z"/>
		<path class="st0" d="M3154.9,316.7l-10.9,88.6l31.5-29.1h23.5l-39.3,34.2l31.6,40.8H3170l-27.3-35.7l-4.4,35.7h-17.6l16.6-134.4
			h17.6V316.7z"/>
		<path class="st0" d="M3231.5,376.2l-9.2,75h-17.6l9.2-75H3231.5z M3237,340.5c0,2.5-0.9,4.8-2.8,6.6c-1.9,1.9-4.1,2.8-6.7,2.8
			s-4.9-1-6.8-2.9c-1.9-2-2.8-4.3-2.8-6.9s0.9-4.8,2.7-6.6c1.9-1.9,4.1-2.8,6.6-2.8c2.6,0,4.9,1,6.8,2.9
			C3236,335.6,3237,337.8,3237,340.5z"/>
		<path class="st0" d="M3272.9,392.5l-7.2,58.7h-17.6l7.2-58.7h-9.9l2-16.3h10l4.3-34.8h17.6l-4.3,34.8h16.2l-2,16.3H3272.9z"/>
		<path class="st0" d="M3342.4,395.5l-1.8,13.9h-34.3l1.6-13.9H3342.4z"/>
		<path class="st0" d="M3443.8,376.2L3429.3,494h-17.6l6.1-49.8c-7.2,5.7-15,8.6-23.6,8.6c-10.3,0-18.8-3.5-25.5-10.4
			c-6.6-7.1-9.9-16.1-9.9-26.8c0-11.7,3.8-21.5,11.4-29.5c7.6-7.9,17-11.9,28.3-11.9c5.5,0,10.3,0.9,14.3,2.8
			c3.8,1.8,7.8,5.1,12,9.8l1.3-10.7h17.7V376.2z M3422.4,411.7c0-6.5-2-11.9-6.1-16.2c-4.1-4.3-9.2-6.4-15.3-6.4
			c-6.9,0-12.7,2.5-17.4,7.6c-4.7,5.2-7.1,11.5-7.1,18.8c0,6.5,2,12,6.1,16.4c4.1,4.2,9.3,6.4,15.7,6.4c6.6,0,12.2-2.6,17-7.8
			C3420,425.2,3422.4,419,3422.4,411.7z"/>
		<path class="st0" d="M3533,376.2l-5.3,43.6c-0.4,3.7-1,7-1.6,9.7c-0.6,2.8-1.3,5.1-2.1,6.9c-1.5,3.6-4,6.7-7.5,9.5
			c-5.9,4.7-13.8,7-23.5,7c-9.2,0-16.6-2.4-22.1-7.1c-5.5-4.8-8.3-11.2-8.3-19.2c0-1.2,0.1-2.7,0.2-4.3c0.1-1.6,0.3-3.5,0.6-5.7
			l4.9-40.5h17.6l-5.2,42.1c-0.2,1.8-0.4,3.4-0.5,4.7c-0.1,1.4-0.2,2.5-0.2,3.4c0,7.9,4.6,11.9,13.9,11.9c5,0,8.8-1.3,11.1-3.9
			c2.4-2.6,4-7.2,4.8-13.7l5.5-44.5h17.7V376.2z"/>
		<path class="st0" d="M3582.5,316.7L3566,451.1h-17.6l16.6-134.4H3582.5z"/>
		<path class="st0" d="M3673.4,376.2l-9.2,75h-17.6l1-8.1c-7.5,6.6-15.3,9.9-23.4,9.9c-9.9,0-18-3.4-24.3-10.1s-9.4-15.5-9.4-26.2
			c0-12.4,3.6-22.5,10.7-30.4c7.3-7.9,16.6-11.9,27.9-11.9c5.4,0,9.9,0.9,13.7,2.6c3.8,1.8,7.7,4.8,11.7,9.1l1.2-9.9H3673.4z
			 M3652,411.5c0-6.6-1.9-12-5.7-16.2s-8.8-6.3-14.8-6.3c-6.6,0-12.1,2.6-16.6,7.7c-4.5,5.2-6.7,11.6-6.7,19.1
			c0,6.6,1.9,12,5.6,16.2c3.7,4.2,8.5,6.3,14.3,6.3c6.5,0,12.1-2.6,16.8-7.9C3649.7,425.1,3652,418.8,3652,411.5z"/>
		<path class="st0" d="M3753.4,383.4l-2.2,17.9c-3.6-4.6-7.1-7.9-10.3-10c-3.2-2-7.1-2.9-11.5-2.9c-6.7,0-12.2,2.5-16.5,7.4
			s-6.4,11.3-6.4,19c0,7.3,2,13.1,6,17.4c4.1,4.4,9.4,6.6,15.8,6.6c6.2,0,12.6-2.7,19.3-8l-2.3,18.5c-6.8,2.8-13.3,4.1-19.4,4.1
			c-11,0-19.9-3.6-26.8-10.7c-6.8-7.2-10.3-16.5-10.3-27.9c0-11.7,3.7-21.5,11.1-29.4c7.4-7.9,16.7-11.9,27.7-11.9
			C3736.6,373.7,3745.2,376.9,3753.4,383.4z"/>
		<path class="st0" d="M3817.4,384.4l-10,9.9c-4.7-4.2-9-6.3-13-6.3c-2.7,0-4.9,0.8-6.7,2.3s-2.7,3.4-2.7,5.6s0.7,4,2.2,5.5
			s4.6,3.6,9.3,6.2c6.7,3.8,11.2,7.2,13.5,10.3c2.4,3.1,3.7,7.1,3.7,12c0,7.1-2.5,12.8-7.4,17.1c-5,4.2-11.6,6.4-19.7,6.4
			c-11,0-20.1-5-27.3-14.9l11.5-8c4.7,5.7,9.8,8.5,15.1,8.5c3,0,5.5-0.8,7.3-2.4s2.7-3.7,2.7-6.2c0-2.2-0.8-4-2.3-5.4
			c-0.7-0.7-2-1.6-3.9-2.9c-1.9-1.2-4.4-2.7-7.6-4.4c-5.6-3.1-9.5-6.2-11.7-9.2c-2.2-3.1-3.3-7-3.3-11.5c0-6.8,2.5-12.4,7.5-16.9
			s11.3-6.7,19-6.7C3802.4,373.7,3810.3,377.3,3817.4,384.4z"/>
	</g>
	<g>
		<circle class="st0" cx="2806.1" cy="405.4" r="88.7"/>
	</g>
</g>
<g>
	<path class="st0" d="M362.9,387.3c1.8-1.5,4-2.3,6.7-2.3c4,0,8.3,2.1,13,6.3l9.9-9.9c-7.1-7.2-15-10.7-23.7-11
		c-7.7,0-14,2.2-19,6.7s-7.5,10.1-7.5,16.9c0,4.5,1.1,8.4,3.3,11.5c2.2,3,6.1,6.1,11.7,9.2c3.2,1.7,5.7,3.2,7.6,4.4
		c1.9,1.3,3.2,2.2,3.9,2.9c1.5,1.4,2.3,3.2,2.3,5.4c0,2.5-0.9,4.6-2.7,6.2c-1.8,1.6-4.3,2.4-7.3,2.4c-5.3,0-10.4-2.8-15.1-8.5
		l-11.5,8c7.2,9.9,16.3,14.9,27.3,14.9c8.1,0,14.7-2.2,19.7-6.4c4.9-4.3,7.4-10,7.4-17.1c0-4.9-1.3-8.9-3.7-12
		c-2.3-3.1-6.8-6.5-13.5-10.3c-4.7-2.6-7.8-4.7-9.3-6.2s-2.2-3.3-2.2-5.5S361.1,388.8,362.9,387.3z"/>
	<path class="st0" d="M415.7,382.4c-7.4,7.9-11.1,17.7-11.1,29.4c0,11.4,3.5,20.7,10.3,27.9c6.9,7.1,15.8,10.7,26.8,10.7
		c6.1,0,12.6-1.3,19.4-4.1l2.3-18.5c-6.7,5.3-13.1,8-19.3,8c-6.4,0-11.7-2.2-15.8-6.6c-4.1-4.3-6.1-10.1-6.1-17.4
		c0-7.7,2.1-14.1,6.4-19c4.3-4.9,9.8-7.4,16.5-7.4c4.4,0,8.3,0.9,11.5,2.9c3.2,2.1,6.7,5.4,10.3,10l2.2-17.9
		c-8.2-6.5-16.8-9.7-25.7-9.9C432.4,370.5,423.1,374.5,415.7,382.4z"/>
	<path class="st0" d="M501.7,327.7c-2.5,0-4.7,0.9-6.6,2.8c-1.8,1.8-2.7,4-2.7,6.6c0,2.6,0.9,4.9,2.8,6.9c1.9,1.9,4.2,2.9,6.8,2.9
		c2.6,0,4.8-0.9,6.7-2.8c1.9-1.8,2.8-4.1,2.8-6.6c0-2.7-1-5-3-6.9C506.6,328.7,504.3,327.7,501.7,327.7z"/>
	<polygon class="st0" points="479.2,448.1 496.8,448.1 506,373.1 488.4,373.1 	"/>
	<polygon class="st0" points="555.5,313.7 555.5,313.8 555.5,313.8 	"/>
	<polygon class="st0" points="576.1,373.2 544.6,402.3 555.5,313.8 537.9,313.8 521.3,448.2 538.9,448.2 543.3,412.5 570.6,448.2 
		591.9,448.2 560.3,407.4 599.6,373.2 	"/>
	<path class="st0" d="M627.8,327.7c-2.5,0-4.7,0.9-6.6,2.8c-1.8,1.8-2.7,4-2.7,6.6c0,2.6,0.9,4.9,2.8,6.9c1.9,1.9,4.2,2.9,6.8,2.9
		s4.8-0.9,6.7-2.8c1.9-1.8,2.8-4.1,2.8-6.6c0-2.7-1-5-3-6.9C632.7,328.7,630.4,327.7,627.8,327.7z"/>
	<polygon class="st0" points="605.3,448.1 622.9,448.1 632.1,373.1 614.5,373.1 	"/>
	<polygon class="st0" points="679.9,338.4 662.3,338.4 658,373.2 648,373.2 646,389.5 655.9,389.5 648.7,448.2 666.3,448.2 
		673.5,389.5 689.8,389.5 691.8,373.2 675.6,373.2 	"/>
	<polygon class="st0" points="706.9,406.4 741.2,406.4 743,392.5 708.5,392.5 	"/>
	<path class="st0" d="M825.4,383.8c-4.2-4.7-8.2-8-12-9.8c-4-1.9-8.8-2.8-14.3-2.8c-11.3,0-20.7,4-28.3,11.9
		c-7.6,8-11.4,17.8-11.4,29.5c0,10.7,3.3,19.7,9.9,26.8c6.7,6.9,15.2,10.4,25.5,10.4c8.6,0,16.4-2.9,23.6-8.6l-6.1,49.8h17.6
		l14.5-117.9h-17.7L825.4,383.8z M815.9,427.4c-4.8,5.2-10.4,7.8-17,7.8c-6.4,0-11.6-2.2-15.7-6.4c-4.1-4.4-6.1-9.9-6.1-16.4
		c0-7.3,2.4-13.6,7.1-18.8c4.7-5.1,10.5-7.6,17.4-7.6c6.1,0,11.2,2.1,15.3,6.4s6.1,9.7,6.1,16.2C823,416,820.6,422.2,815.9,427.4z"
		/>
	<path class="st0" d="M910.4,417.5c-0.8,6.5-2.4,11.1-4.8,13.7c-2.3,2.6-6.1,3.9-11.1,3.9c-9.3,0-13.9-4-13.9-11.9
		c0-0.9,0.1-2,0.2-3.4c0.1-1.3,0.3-2.9,0.5-4.7l5.2-42.1h-17.6l-4.9,40.5c-0.3,2.2-0.5,4.1-0.6,5.7c-0.1,1.6-0.2,3.1-0.2,4.3
		c0,8,2.8,14.4,8.3,19.2c5.5,4.7,12.9,7.1,22.1,7.1c9.7,0,17.6-2.3,23.5-7c3.5-2.8,6-5.9,7.5-9.5c0.8-1.8,1.5-4.1,2.1-6.9
		c0.6-2.7,1.2-6,1.6-9.7l5.3-43.6V373h-17.7L910.4,417.5z"/>
	<polygon class="st0" points="949,448.1 966.6,448.1 983.1,313.7 965.6,313.7 	"/>
	<path class="st0" d="M1055.1,383c-4-4.3-7.9-7.3-11.7-9.1c-3.8-1.7-8.3-2.6-13.7-2.6c-11.3,0-20.6,4-27.9,11.9
		c-7.1,7.9-10.7,18-10.7,30.4c0,10.7,3.1,19.5,9.4,26.2s14.4,10.1,24.3,10.1c8.1,0,15.9-3.3,23.4-9.9l-1,8.1h17.6l9.2-75h-17.7
		L1055.1,383z M1045.5,427.4c-4.7,5.3-10.3,7.9-16.8,7.9c-5.8,0-10.6-2.1-14.3-6.3c-3.7-4.2-5.6-9.6-5.6-16.2
		c0-7.5,2.2-13.9,6.7-19.1c4.5-5.1,10-7.7,16.6-7.7c6,0,11,2.1,14.8,6.3c3.8,4.2,5.7,9.6,5.7,16.2
		C1052.6,415.7,1050.3,422.1,1045.5,427.4z"/>
	<path class="st0" d="M1100.5,382.4c-7.4,7.9-11.1,17.7-11.1,29.4c0,11.4,3.5,20.7,10.3,27.9c6.9,7.1,15.8,10.7,26.8,10.7
		c6.1,0,12.6-1.3,19.4-4.1l2.3-18.5c-6.7,5.3-13.1,8-19.3,8c-6.4,0-11.7-2.2-15.8-6.6c-4-4.3-6-10.1-6-17.4c0-7.7,2.1-14.1,6.4-19
		c4.3-4.9,9.8-7.4,16.5-7.4c4.4,0,8.3,0.9,11.5,2.9c3.2,2.1,6.7,5.4,10.3,10l2.2-17.9c-8.2-6.5-16.8-9.7-25.8-9.9
		C1117.2,370.5,1107.9,374.5,1100.5,382.4z"/>
	<path class="st0" d="M1197.1,404.6c-4.7-2.6-7.8-4.7-9.3-6.2s-2.2-3.3-2.2-5.5s0.9-4.1,2.7-5.6c1.8-1.5,4-2.3,6.7-2.3
		c4,0,8.3,2.1,13,6.3l10-9.9c-7.1-7.2-15-10.7-23.8-11c-7.7,0-14,2.2-19,6.7s-7.5,10.1-7.5,16.9c0,4.5,1.1,8.4,3.3,11.5
		c2.2,3,6.1,6.1,11.7,9.2c3.2,1.7,5.7,3.2,7.6,4.4c1.9,1.3,3.2,2.2,3.9,2.9c1.5,1.4,2.3,3.2,2.3,5.4c0,2.5-0.9,4.6-2.7,6.2
		c-1.8,1.6-4.3,2.4-7.3,2.4c-5.3,0-10.4-2.8-15.1-8.5l-11.5,8c7.2,9.9,16.3,14.9,27.3,14.9c8.1,0,14.7-2.2,19.7-6.4
		c4.9-4.3,7.4-10,7.4-17.1c0-4.9-1.3-8.9-3.7-12C1208.3,411.8,1203.8,408.4,1197.1,404.6z"/>
	<path class="st0" d="M168.8,402.2c0,20.8,16.8,37.7,37.6,37.7c20.8,0,37.7-16.8,37.6-37.7c0-20.7-16.8-37.6-37.6-37.6
		C185.7,364.6,168.8,381.4,168.8,402.2z M192,401.2l11.4-8.1c0.3-0.2,0.6-0.1,0.8,0.1c0.1,0,0.1,0.1,0.1,0.2c0.1,0.2,0,0.4-0.2,0.5
		l-11.4,8.1c0,0.1-0.1,0.1-0.2,0.1c-0.2,0.1-0.4,0-0.5-0.2c-0.1-0.1-0.1-0.2-0.2-0.2C191.7,401.5,191.8,401.3,192,401.2z
		 M182.7,384.7c1.7-0.3,3.2,0.8,3.5,2.4c0.3,1.7-0.8,3.2-2.4,3.5c-1.6,0.3-3.2-0.8-3.5-2.4C180,386.5,181.1,385,182.7,384.7z
		 M183.1,393.1c0-0.3,0.2-0.6,0.5-0.6c0.2-0.1,0.5,0.1,0.7,0.5c0,0.1,0,0.1,0,0.1l0.4,4.7c0,0.3-0.2,0.5-0.5,0.6c-0.1,0-0.1,0-0.1,0
		c-0.3,0-0.5-0.2-0.6-0.5c0-0.1,0-0.1,0-0.1L183.1,393.1z M179.2,405.8c0-3.1,2.5-5.6,5.6-5.6c3.1,0,5.6,2.5,5.6,5.6
		c0,3.1-2.5,5.6-5.6,5.6C181.7,411.4,179.2,408.9,179.2,405.8z M187.8,413.4c0.1-0.1,0.2-0.2,0.3-0.3c0.2-0.2,0.6-0.1,0.7,0.2
		l2.8,5.6c0,0.1,0,0.3,0,0.4c-0.1,0.1-0.2,0.2-0.3,0.3c-0.1,0-0.3,0-0.4,0c-0.2,0-0.3-0.1-0.3-0.2l-2.8-5.6
		C187.8,413.7,187.8,413.5,187.8,413.4z M199.1,426.3c-0.7,2.3-3.2,3.7-5.5,3c-2.3-0.7-3.7-3.2-3-5.5c0.7-2.3,3.2-3.7,5.5-3
		C198.4,421.5,199.7,424,199.1,426.3z M206.9,413.5c-0.1,0.3-0.3,0.4-0.5,0.4c-0.1,0-0.1,0-0.2,0l-13.5-5c-0.3-0.1-0.4-0.3-0.4-0.5
		c0-0.1,0-0.1,0-0.2c0.1-0.2,0.4-0.4,0.7-0.3l13.5,5c0.3,0,0.4,0.3,0.4,0.4C206.9,413.4,206.9,413.4,206.9,413.5z M216.2,423.2
		c-3.8,0-6.9-3.1-6.9-6.9c0-3.8,3.1-6.9,6.9-6.9c3.8,0,6.9,3.1,6.9,6.9C223.1,420.1,220,423.2,216.2,423.2z M212.9,396.3v-0.1
		c0-0.3,0.2-0.5,0.4-0.6c0.3-0.1,0.6,0,0.7,0.3l1.6,11.7v0.1c0,0.3-0.2,0.5-0.4,0.6h-0.1c-0.3,0-0.5-0.2-0.6-0.4L212.9,396.3z
		 M229.7,384.7c1.9,0,3.5,1.6,3.5,3.5s-1.6,3.5-3.5,3.5c-1.9,0-3.5-1.6-3.5-3.5C226.2,386.3,227.8,384.7,229.7,384.7z M220.4,387.6
		h3.1c0.3,0,0.5,0.3,0.6,0.6c0,0.4-0.3,0.6-0.6,0.6h-3.1c-0.4,0-0.6-0.3-0.6-0.6C219.8,387.8,220.1,387.6,220.4,387.6z M211.1,382.4
		c3.1,0,5.6,2.5,5.6,5.6c0,3.1-2.5,5.6-5.6,5.6c-3.1,0-5.6-2.5-5.6-5.6C205.5,384.9,208,382.4,211.1,382.4z"/>
	<path class="st0" d="M206.7,313.6c-49,0-88.7,39.7-88.7,88.7s39.7,88.7,88.7,88.7c20.4,0,39.2-6.9,54.2-18.4l-25.5-25.5
		c-8.3,5.4-18.3,8.6-29,8.6c-29.4,0-53.4-24-53.4-53.4c0-29.4,24-53.4,53.4-53.4c29.4,0,53.4,24,53.4,53.4c0,10.7-3.2,20.6-8.6,29
		l25.5,25.5c11.7-15,18.7-33.9,18.7-54.5C295.4,353.3,255.7,313.6,206.7,313.6z"/>
</g>
</svg>
