<?xml version="1.0" encoding="utf-8"?>
<!-- Generator: Adobe Illustrator 27.8.1, SVG Export Plug-In . SVG Version: 6.00 Build 0)  -->
<svg version="1.1" id="レイヤー_1" xmlns="http://www.w3.org/2000/svg" xmlns:xlink="http://www.w3.org/1999/xlink" x="0px"
	 y="0px" viewBox="0 0 1280 820" style="enable-background:new 0 0 1280 820;" xml:space="preserve">
<style type="text/css">
	.st0{fill:#036DD7;}
	.st1{fill:none;}
</style>
<g>
	<path class="st0" d="M288.5,635.1c1.5-1.2,3.3-1.8,5.5-1.8c3.3,0,6.8,1.7,10.6,5.1l8.1-8.1c-5.8-5.8-12.2-8.7-19.4-8.8
		c-6.3,0-11.4,1.8-15.5,5.4c-4.1,3.7-6.1,8.3-6.1,13.8c0,3.6,0.9,6.7,2.7,9.3c1.7,2.5,4.9,4.9,9.5,7.5c2.6,1.4,4.7,2.6,6.2,3.6
		s2.6,1.7,3.2,2.3c1.3,1.1,1.9,2.6,1.9,4.4c0,2.1-0.7,3.8-2.2,5.1s-3.4,1.9-5.9,1.9c-4.3,0-8.5-2.3-12.3-6.9l-9.4,6.6
		c5.9,8.1,13.3,12.1,22.3,12.1c6.5,0,11.9-1.7,16-5.2c4-3.5,6-8.1,6-13.9c0-4-1-7.3-3-9.8c-1.8-2.5-5.5-5.3-11-8.4
		c-3.9-2.2-6.4-3.8-7.6-5.1c-1.2-1.2-1.8-2.7-1.8-4.5S287.1,636.3,288.5,635.1z"/>
	<path class="st0" d="M331.5,631.2c-6,6.4-9,14.3-9,23.9c0,9.3,2.8,16.9,8.4,22.7c5.7,5.9,12.9,8.8,21.9,8.8c5,0,10.3-1.2,15.8-3.4
		l1.9-15.1c-5.4,4.4-10.6,6.6-15.7,6.6c-5.3,0-9.6-1.8-12.9-5.4c-3.3-3.5-4.9-8.3-4.9-14.2c0-6.3,1.8-11.5,5.3-15.5s8-6,13.4-6
		c3.5,0,6.7,0.8,9.3,2.4c2.6,1.6,5.5,4.3,8.4,8.1l1.8-14.6c-6.7-5.3-13.8-7.9-21.1-8C345.1,621.5,337.6,624.8,331.5,631.2z"/>
	<polygon class="st0" points="383.4,684.7 397.7,684.7 405.2,623.6 390.9,623.6 	"/>
	<path class="st0" d="M401.8,586.6c-2.1,0-3.9,0.8-5.4,2.3s-2.2,3.3-2.2,5.4s0.8,4,2.3,5.6c1.5,1.5,3.4,2.3,5.5,2.3s3.9-0.8,5.4-2.3
		s2.3-3.3,2.3-5.4c0-2.2-0.8-4-2.4-5.5C405.8,587.4,403.9,586.6,401.8,586.6z"/>
	<polygon class="st0" points="462.3,623.6 436.6,647.3 445.5,575.1 431.2,575.1 417.7,684.7 432,684.7 435.6,655.6 457.9,684.7 
		475.2,684.7 449.4,651.5 481.4,623.6 	"/>
	<path class="st0" d="M445.5,575.1L445.5,575.1L445.5,575.1z"/>
	<polygon class="st0" points="486.2,684.7 500.5,684.7 508,623.6 493.7,623.6 	"/>
	<path class="st0" d="M504.6,586.6c-2.1,0-3.9,0.8-5.4,2.3s-2.2,3.3-2.2,5.4s0.8,4,2.3,5.6c1.5,1.5,3.4,2.3,5.5,2.3s3.9-0.8,5.4-2.3
		s2.3-3.3,2.3-5.4c0-2.2-0.8-4-2.4-5.5C508.6,587.4,506.7,586.6,504.6,586.6z"/>
	<polygon class="st0" points="546.9,595.3 532.6,595.3 529.1,623.6 521,623.6 519.4,636.9 527.5,636.9 521.6,684.7 535.9,684.7 
		541.8,636.9 555,636.9 556.6,623.6 543.4,623.6 	"/>
	<polygon class="st0" points="568.9,650.7 596.9,650.7 598.3,639.3 570.2,639.3 	"/>
	<path class="st0" d="M665.7,632.4c-3.5-3.9-6.7-6.5-9.8-8c-3.3-1.5-7.2-2.3-11.7-2.3c-9.2,0-16.9,3.3-23.1,9.7s-9.3,14.4-9.3,24
		c0,8.8,2.7,16.1,8.1,21.9c5.5,5.7,12.4,8.5,20.8,8.5c7,0,13.4-2.3,19.2-7l-5,40.5h14.3l11.8-96.1l0,0h-14.3L665.7,632.4z
		 M657.8,667.7c-3.8,4.3-8.4,6.4-13.8,6.4c-5.2,0-9.5-1.7-12.8-5.2c-3.3-3.6-5-8.1-5-13.4c0-6,1.9-11.1,5.8-15.3
		c3.8-4.1,8.5-6.2,14.1-6.2c5,0,9.2,1.8,12.5,5.3s5,7.9,5,13.2C663.6,658.5,661.6,663.6,657.8,667.7z"/>
	<path class="st0" d="M735.2,659.9c-0.7,5.4-2,9.1-3.9,11.2c-2,2.1-5,3.2-9.1,3.2c-7.6,0-11.4-3.3-11.4-9.7c0-0.8,0-1.7,0.1-2.8
		s0.2-2.4,0.4-3.9l4.2-34.3h-14.3l-4,33c-0.2,1.7-0.4,3.3-0.5,4.6s-0.2,2.5-0.2,3.5c0,6.5,2.2,11.7,6.7,15.6
		c4.5,3.9,10.5,5.8,18,5.8c7.9,0,14.3-1.9,19.1-5.7c2.9-2.2,4.9-4.8,6.1-7.7c0.6-1.5,1.2-3.4,1.7-5.6s1-4.9,1.3-7.9l4.3-35.6h-14
		L735.2,659.9z"/>
	<path class="st0" d="M753.7,623.6L753.7,623.6L753.7,623.6z"/>
	<polygon class="st0" points="766.4,684.7 780.7,684.7 794.1,575.1 779.9,575.1 	"/>
	<path class="st0" d="M852.9,631.6c-3.2-3.5-6.4-6-9.5-7.4s-6.8-2.1-11.2-2.1c-9.3,0-16.9,3.3-22.8,9.7c-5.9,6.5-8.8,14.7-8.8,24.8
		c0,8.7,2.6,15.8,7.7,21.3s11.7,8.2,19.8,8.2c6.6,0,13-2.6,19.1-8l-0.8,6.6h14.3l7.5-61.1h-14.3L852.9,631.6z M844.9,667.9
		c-3.9,4.3-8.4,6.4-13.7,6.4c-4.8,0-8.7-1.7-11.7-5.1s-4.5-7.8-4.5-13.2c0-6.2,1.8-11.4,5.4-15.6s8.1-6.3,13.5-6.3
		c5,0,9,1.7,12.1,5.1c3.1,3.4,4.7,7.8,4.7,13.2C850.7,658.3,848.8,663.4,844.9,667.9z"/>
	<path class="st0" d="M889.7,631.2c-6,6.4-9,14.3-9,23.9c0,9.3,2.8,16.9,8.4,22.7c5.7,5.9,12.9,8.8,21.9,8.8c5,0,10.3-1.2,15.8-3.4
		l1.9-15.1c-5.4,4.4-10.6,6.6-15.7,6.6c-5.3,0-9.6-1.8-12.9-5.4c-3.3-3.5-4.9-8.3-4.9-14.2c0-6.3,1.8-11.5,5.3-15.5s8-6,13.4-6
		c3.5,0,6.7,0.8,9.3,2.4c2.6,1.6,5.5,4.3,8.4,8.1l1.8-14.6c-6.7-5.3-13.8-7.9-21.1-8C903.3,621.5,895.8,624.8,889.7,631.2z"/>
	<path class="st0" d="M968.5,649.3c-3.9-2.2-6.4-3.8-7.6-5.1c-1.2-1.2-1.8-2.7-1.8-4.5s0.7-3.4,2.2-4.6s3.3-1.8,5.5-1.8
		c3.3,0,6.8,1.7,10.6,5.1l8.1-8.1c-5.8-5.8-12.2-8.7-19.4-8.8c-6.3,0-11.4,1.8-15.5,5.4c-4.1,3.7-6.1,8.3-6.1,13.8
		c0,3.6,0.9,6.7,2.7,9.3c1.7,2.5,4.9,4.9,9.5,7.5c2.6,1.4,4.7,2.6,6.2,3.6s2.6,1.7,3.2,2.3c1.3,1.1,1.9,2.6,1.9,4.4
		c0,2.1-0.7,3.8-2.2,5.1s-3.4,1.9-5.9,1.9c-4.3,0-8.5-2.3-12.3-6.9l-9.4,6.6c5.9,8.1,13.3,12.1,22.3,12.1c6.6,0,11.9-1.7,16-5.2
		c4-3.5,6-8.1,6-13.9c0-4-1-7.3-3-9.8C977.7,655.2,974,652.4,968.5,649.3z"/>
	<g>
		<path class="st1" d="M582.9,383.5c0.3,0.1,0.7,0.1,1.1-0.1c0.4-0.2,0.7-0.5,0.8-0.9c0.1-0.3,0.1-0.7-0.1-1.1l-7.6-15.1
			c-0.4-0.7-1.3-1-2-0.7c-0.4,0.2-0.7,0.5-0.8,0.9c-0.1,0.3-0.1,0.7,0.1,1.1l7.6,15.1C582.1,383.2,582.5,383.4,582.9,383.5z"/>
		<path class="st1" d="M585.8,335.8c0.3,0.5,0.9,0.7,1.4,0.6c0.2,0,0.5-0.1,0.7-0.3l30.6-21.7c0.5-0.3,0.7-0.9,0.6-1.4
			c0-0.2-0.1-0.5-0.3-0.7c-0.5-0.7-1.4-0.8-2.1-0.3l-30.6,21.7c-0.5,0.3-0.7,0.9-0.6,1.4C585.6,335.4,585.7,335.6,585.8,335.8z"/>
		<path class="st1" d="M596.9,386.8c-6.3-1.8-12.9,1.8-14.7,8.1c-1.8,6.3,1.8,12.9,8.1,14.7s12.9-1.8,14.7-8.1
			S603.1,388.6,596.9,386.8z"/>
		<circle class="st1" cx="566.7" cy="346.2" r="15"/>
		<path class="st1" d="M564.5,325.8L564.5,325.8c0.9-0.1,1.4-0.8,1.3-1.6l-1.1-12.5v-0.1c0-0.7-0.7-1.2-1.5-1.2
			c-0.8,0.1-1.4,0.8-1.4,1.6l1.1,12.5v0.1C563,325.4,563.7,325.9,564.5,325.8z"/>
		<path class="st1" d="M563.9,305.4c4.3-0.8,7.2-5,6.4-9.3s-5-7.2-9.3-6.4s-7.2,5-6.4,9.3C555.3,303.3,559.5,306.2,563.9,305.4z"/>
		<path class="st1" d="M625,365.3L588.7,352c-0.8-0.3-1.6,0.1-1.9,0.9c-0.1,0.2-0.1,0.3-0.1,0.5c0,0.6,0.4,1.2,1,1.4l36.4,13.4
			c0.2,0.1,0.3,0.1,0.5,0.1c0.6,0,1.2-0.4,1.4-1c0.1-0.2,0.1-0.3,0.1-0.5C626.1,366.1,625.7,365.6,625,365.3z"/>
		<path class="st1" d="M662.3,300.3l8.4,0.1c0.8,0,1.5-0.7,1.5-1.5s-0.7-1.5-1.5-1.5l-8.4-0.1c-0.8,0-1.5,0.7-1.5,1.5
			S661.5,300.3,662.3,300.3z"/>
		<circle class="st1" cx="637.3" cy="298.5" r="15"/>
		<path class="st1" d="M638,361.3c-7.3,7.3-7.3,19,0,26.3s19,7.3,26.3,0c7.2-7.2,7.2-19,0-26.3C657,354,645.3,354,638,361.3z"/>
		<path class="st1" d="M687.3,308.4c5.2,0,9.4-4.2,9.4-9.4c0.1-5.2-4.2-9.4-9.4-9.4s-9.4,4.2-9.4,9.4
			C677.9,304.2,682.1,308.4,687.3,308.4z"/>
		<path class="st1" d="M648.2,353c0.1,0,0.2,0,0.3-0.1c0.7-0.2,1.1-0.9,1-1.6c0-0.1,0-0.2-0.1-0.3l-4.3-31.2
			c-0.3-0.8-1.1-1.2-1.9-0.9c-0.7,0.2-1.1,0.9-1,1.6c0,0.1,0,0.2,0.1,0.3l4.3,31.2C646.8,352.7,647.5,353.1,648.2,353z"/>
		<path class="st0" d="M523.5,336.9c0,55.9,45.4,101.3,101.3,101.3s101.3-45.4,101.3-101.3c0-55.9-45.4-101.3-101.3-101.3
			S523.5,281,523.5,336.9z M586.1,333.7l30.6-21.7c0.7-0.5,1.6-0.4,2.1,0.3c0.2,0.2,0.3,0.5,0.3,0.7c0.1,0.5-0.1,1.1-0.6,1.4
			l-30.6,21.7c-0.2,0.2-0.5,0.3-0.7,0.3c-0.5,0.1-1.1-0.1-1.4-0.6c-0.1-0.2-0.2-0.4-0.3-0.7C585.4,334.6,585.6,334,586.1,333.7z
			 M561,289.7c4.3-0.8,8.5,2.1,9.3,6.4s-2.1,8.5-6.4,9.3c-4.4,0.8-8.6-2.1-9.3-6.4C553.8,294.7,556.7,290.5,561,289.7z M561.8,312
			c0-0.8,0.6-1.5,1.4-1.6c0.8,0,1.5,0.5,1.5,1.2v0.1l1.1,12.5c0.1,0.8-0.4,1.5-1.2,1.6h-0.1c-0.8,0.1-1.5-0.4-1.6-1.2v-0.1
			L561.8,312z M551.7,346.2c0-8.3,6.7-15,15-15s15,6.7,15,15s-6.7,15-15,15S551.7,354.5,551.7,346.2z M574.3,366.5
			c0.1-0.4,0.4-0.7,0.8-0.9c0.7-0.3,1.6,0,2,0.7l7.6,15.1c0.2,0.4,0.2,0.8,0.1,1.1c-0.1,0.4-0.4,0.7-0.8,0.9
			c-0.4,0.2-0.8,0.2-1.1,0.1c-0.4-0.1-0.8-0.3-0.9-0.8l-7.6-15.1C574.2,367.2,574.2,366.8,574.3,366.5z M605,401.5
			c-1.8,6.3-8.4,9.9-14.7,8.1s-9.9-8.4-8.1-14.7c1.8-6.3,8.4-9.9,14.7-8.1C603.1,388.6,606.8,395.2,605,401.5z M626,367.3
			c-0.2,0.6-0.8,1-1.4,1c-0.2,0-0.3,0-0.5-0.1l-36.4-13.4c-0.6-0.2-1-0.8-1-1.4c0-0.2,0-0.3,0.1-0.5c0.3-0.8,1.1-1.2,1.9-0.9
			l36.3,13.3c0.7,0.3,1.1,0.8,1.1,1.5C626.1,367,626.1,367.1,626,367.3z M664.3,387.6c-7.3,7.3-19,7.3-26.3,0s-7.3-19,0-26.3
			s19-7.3,26.3,0C671.5,368.6,671.5,380.4,664.3,387.6z M642.2,320.5c-0.1-0.7,0.3-1.4,1-1.6c0.8-0.3,1.6,0.1,1.9,0.9l4.3,31.2
			c0.1,0.1,0.1,0.2,0.1,0.3c0.1,0.7-0.3,1.4-1,1.6c-0.1,0.1-0.2,0.1-0.3,0.1c-0.7,0.1-1.4-0.3-1.6-1l-4.3-31.2
			C642.2,320.7,642.2,320.6,642.2,320.5z M687.3,289.6c5.2,0,9.5,4.2,9.4,9.4c0,5.2-4.2,9.4-9.4,9.4s-9.4-4.2-9.4-9.4
			C677.9,293.8,682.1,289.6,687.3,289.6z M662.3,297.3l8.4,0.1c0.8,0,1.5,0.7,1.5,1.5s-0.7,1.5-1.5,1.5l-8.4-0.1
			c-0.8,0-1.5-0.7-1.5-1.5S661.5,297.3,662.3,297.3z M637.3,283.5c8.3,0,15,6.8,15,15c0,8.3-6.7,15-15,15s-15-6.8-15-15
			C622.3,290.2,629.1,283.5,637.3,283.5z"/>
		<path class="st0" d="M813.9,483.6c31.5-40.4,50.2-91.3,50.2-146.5c0-131.8-106.8-238.6-238.6-238.6S386.9,205.3,386.9,337.1
			s106.8,238.6,238.6,238.6c55,0,105.6-18.6,145.9-49.8l-68.5-68.5c-22.5,14.6-49.3,23.2-78.1,23.2c-79.2,0-143.7-64.5-143.7-143.7
			s64.5-143.7,143.7-143.7s143.7,64.5,143.7,143.7c0,28.8-8.6,55.6-23.2,78.1L813.9,483.6z"/>
	</g>
</g>
</svg>
