<?xml version="1.0" encoding="utf-8"?>
<!-- Generator: Adobe Illustrator 27.8.1, SVG Export Plug-In . SVG Version: 6.00 Build 0)  -->
<svg version="1.1" id="レイヤー_1" xmlns="http://www.w3.org/2000/svg" xmlns:xlink="http://www.w3.org/1999/xlink" x="0px"
	 y="0px" viewBox="0 0 1280 820" style="enable-background:new 0 0 1280 820;" xml:space="preserve">
<style type="text/css">
	.st0{fill:#FFFFFF;}
</style>
<g>
	<g>
		<path class="st0" d="M2945.1,630.3l-8.1,8.1c-3.8-3.4-7.3-5.1-10.6-5.1c-2.2,0-4,0.6-5.5,1.8c-1.4,1.2-2.2,2.8-2.2,4.6
			s0.6,3.3,1.8,4.5c1.2,1.3,3.7,2.9,7.6,5.1c5.5,3.1,9.2,5.9,11,8.4c2,2.5,3,5.8,3,9.8c0,5.8-2,10.4-6,13.9c-4.1,3.5-9.5,5.2-16,5.2
			c-9,0-16.4-4-22.3-12.1l9.4-6.6c3.8,4.6,8,6.9,12.3,6.9c2.5,0,4.4-0.6,5.9-1.9s2.2-3,2.2-5.1c0-1.8-0.6-3.3-1.9-4.4
			c-0.6-0.6-1.7-1.3-3.2-2.3s-3.6-2.2-6.2-3.6c-4.6-2.6-7.8-5-9.5-7.5c-1.8-2.6-2.7-5.7-2.7-9.3c0-5.5,2-10.1,6.1-13.8
			c4.1-3.6,9.2-5.4,15.5-5.4C2932.8,621.6,2939.2,624.5,2945.1,630.3z"/>
		<path class="st0" d="M3007.5,629.5l-1.8,14.6c-2.9-3.8-5.8-6.5-8.4-8.1c-2.6-1.6-5.8-2.4-9.3-2.4c-5.4,0-9.9,2-13.4,6
			s-5.3,9.2-5.3,15.5c0,5.9,1.6,10.7,4.9,14.2c3.3,3.6,7.6,5.4,12.9,5.4c5.1,0,10.3-2.2,15.7-6.6l-1.9,15.1
			c-5.5,2.2-10.8,3.4-15.8,3.4c-9,0-16.2-2.9-21.9-8.8c-5.6-5.8-8.4-13.4-8.4-22.7c0-9.6,3-17.5,9-23.9c6.1-6.4,13.6-9.7,22.6-9.7
			C2993.7,621.6,3000.8,624.2,3007.5,629.5z"/>
		<path class="st0" d="M3037.5,623.6l-7.5,61.1h-14.3l7.5-61.1H3037.5z M3042,594.5c0,2.1-0.8,3.9-2.3,5.4s-3.3,2.3-5.4,2.3
			s-4-0.8-5.5-2.3c-1.5-1.6-2.3-3.5-2.3-5.6s0.7-3.9,2.2-5.4s3.3-2.3,5.4-2.3c2.1,0,4,0.8,5.5,2.4
			C3041.2,590.5,3042,592.3,3042,594.5z"/>
		<path class="st0" d="M3077.9,575.1l-8.9,72.2l25.7-23.7h19.1l-32,27.9l25.8,33.2h-17.3l-22.3-29.1l-3.6,29.1H3050l13.5-109.6
			L3077.9,575.1L3077.9,575.1z"/>
		<path class="st0" d="M3140.3,623.6l-7.5,61.1h-14.3l7.5-61.1H3140.3z M3144.8,594.5c0,2.1-0.8,3.9-2.3,5.4s-3.3,2.3-5.4,2.3
			s-4-0.8-5.5-2.3c-1.5-1.6-2.3-3.5-2.3-5.6s0.7-3.9,2.2-5.4s3.3-2.3,5.4-2.3c2.1,0,4,0.8,5.5,2.4
			C3144,590.5,3144.8,592.3,3144.8,594.5z"/>
		<path class="st0" d="M3174.1,636.9l-5.9,47.8h-14.3l5.9-47.8h-8.1l1.6-13.3h8.1l3.5-28.3h14.3l-3.5,28.3h13.2l-1.6,13.3H3174.1z"
			/>
		<path class="st0" d="M3230.7,639.3l-1.4,11.4h-28l1.3-11.4H3230.7z"/>
		<path class="st0" d="M3313.3,623.6l-11.8,96.1h-14.3l5-40.5c-5.8,4.7-12.2,7-19.2,7c-8.4,0-15.3-2.8-20.8-8.5
			c-5.4-5.8-8.1-13.1-8.1-21.9c0-9.6,3.1-17.6,9.3-24s13.9-9.7,23.1-9.7c4.5,0,8.4,0.8,11.7,2.3c3.1,1.5,6.3,4.1,9.8,8l1-8.8
			L3313.3,623.6L3313.3,623.6z M3295.9,652.5c0-5.3-1.7-9.7-5-13.2s-7.5-5.3-12.5-5.3c-5.6,0-10.3,2.1-14.1,6.2
			c-3.9,4.2-5.8,9.3-5.8,15.3c0,5.3,1.7,9.8,5,13.4c3.3,3.5,7.6,5.2,12.8,5.2c5.4,0,10-2.1,13.8-6.4
			C3293.9,663.6,3295.9,658.5,3295.9,652.5z"/>
		<path class="st0" d="M3386,623.6l-4.3,35.6c-0.3,3-0.8,5.7-1.3,7.9s-1.1,4.1-1.7,5.6c-1.2,2.9-3.2,5.5-6.1,7.7
			c-4.8,3.8-11.2,5.7-19.1,5.7c-7.5,0-13.5-1.9-18-5.8c-4.5-3.9-6.7-9.1-6.7-15.6c0-1,0.1-2.2,0.2-3.5c0.1-1.3,0.3-2.9,0.5-4.6l4-33
			h14.3l-4.2,34.3c-0.2,1.5-0.3,2.8-0.4,3.9c-0.1,1.1-0.1,2-0.1,2.8c0,6.4,3.8,9.7,11.4,9.7c4.1,0,7.1-1.1,9.1-3.2
			c1.9-2.1,3.2-5.8,3.9-11.2l4.5-36.3L3386,623.6L3386,623.6z"/>
		<path class="st0" d="M3426.4,575.1L3413,684.7h-14.3l13.5-109.6L3426.4,575.1L3426.4,575.1z"/>
		<path class="st0" d="M3500.5,623.6l-7.5,61.1h-14.3l0.8-6.6c-6.1,5.4-12.5,8-19.1,8c-8.1,0-14.7-2.7-19.8-8.2s-7.7-12.6-7.7-21.3
			c0-10.1,2.9-18.3,8.8-24.8c5.9-6.4,13.5-9.7,22.8-9.7c4.4,0,8.1,0.7,11.2,2.1c3.1,1.4,6.3,3.9,9.5,7.4l1-8H3500.5z M3483,652.4
			c0-5.4-1.6-9.8-4.7-13.2c-3.1-3.4-7.1-5.1-12.1-5.1c-5.4,0-9.9,2.1-13.5,6.3s-5.4,9.4-5.4,15.6c0,5.4,1.5,9.8,4.5,13.2
			s6.9,5.1,11.7,5.1c5.3,0,9.8-2.1,13.7-6.4C3481.1,663.4,3483,658.3,3483,652.4z"/>
		<path class="st0" d="M3565.7,629.5l-1.8,14.6c-2.9-3.8-5.8-6.5-8.4-8.1c-2.6-1.6-5.8-2.4-9.3-2.4c-5.4,0-9.9,2-13.4,6
			s-5.3,9.2-5.3,15.5c0,5.9,1.6,10.7,4.9,14.2c3.3,3.6,7.6,5.4,12.9,5.4c5.1,0,10.3-2.2,15.7-6.6l-1.9,15.1
			c-5.5,2.2-10.8,3.4-15.8,3.4c-9,0-16.2-2.9-21.9-8.8c-5.6-5.8-8.4-13.4-8.4-22.7c0-9.6,3-17.5,9-23.9c6.1-6.4,13.6-9.7,22.6-9.7
			C3551.9,621.6,3559,624.2,3565.7,629.5z"/>
		<path class="st0" d="M3617.8,630.3l-8.1,8.1c-3.8-3.4-7.3-5.1-10.6-5.1c-2.2,0-4,0.6-5.5,1.8s-2.2,2.8-2.2,4.6s0.6,3.3,1.8,4.5
			c1.2,1.3,3.7,2.9,7.6,5.1c5.5,3.1,9.2,5.9,11,8.4c2,2.5,3,5.8,3,9.8c0,5.8-2,10.4-6,13.9c-4.1,3.5-9.4,5.2-16,5.2
			c-9,0-16.4-4-22.3-12.1l9.4-6.6c3.8,4.6,8,6.9,12.3,6.9c2.5,0,4.4-0.6,5.9-1.9c1.5-1.3,2.2-3,2.2-5.1c0-1.8-0.6-3.3-1.9-4.4
			c-0.6-0.6-1.7-1.3-3.2-2.3s-3.6-2.2-6.2-3.6c-4.6-2.6-7.8-5-9.5-7.5c-1.8-2.6-2.7-5.7-2.7-9.3c0-5.5,2-10.1,6.1-13.8
			c4.1-3.6,9.2-5.4,15.5-5.4C3605.6,621.6,3612,624.5,3617.8,630.3z"/>
	</g>
	<g>
		<circle class="st0" cx="3257.8" cy="337.1" r="238.6"/>
	</g>
</g>
<g>
	<g>
		<path class="st0" d="M344.7,627.8l-8.1,8.1c-3.8-3.4-7.3-5.1-10.6-5.1c-2.2,0-4,0.6-5.5,1.8c-1.4,1.2-2.2,2.8-2.2,4.6
			s0.6,3.3,1.8,4.5c1.2,1.3,3.7,2.9,7.6,5.1c5.5,3.1,9.2,5.9,11,8.4c2,2.5,3,5.8,3,9.8c0,5.8-2,10.4-6,13.9c-4.1,3.5-9.5,5.2-16,5.2
			c-9,0-16.4-4-22.3-12.1l9.4-6.6c3.8,4.6,8,6.9,12.3,6.9c2.5,0,4.4-0.6,5.9-1.9c1.5-1.3,2.2-3,2.2-5.1c0-1.8-0.6-3.3-1.9-4.4
			c-0.6-0.6-1.7-1.3-3.2-2.3s-3.6-2.2-6.2-3.6c-4.6-2.6-7.8-5-9.5-7.5c-1.8-2.6-2.7-5.7-2.7-9.3c0-5.5,2-10.1,6.1-13.8
			c4.1-3.6,9.2-5.4,15.5-5.4C332.4,619,338.8,621.9,344.7,627.8z"/>
		<path class="st0" d="M407.1,626.9l-1.8,14.6c-2.9-3.8-5.8-6.5-8.4-8.1s-5.8-2.4-9.3-2.4c-5.4,0-9.9,2-13.4,6s-5.3,9.2-5.3,15.5
			c0,5.9,1.6,10.7,4.9,14.2c3.3,3.6,7.6,5.4,12.9,5.4c5.1,0,10.3-2.2,15.7-6.6l-1.9,15.1c-5.5,2.2-10.8,3.4-15.8,3.4
			c-9,0-16.2-2.9-21.9-8.8c-5.6-5.8-8.4-13.4-8.4-22.7c0-9.6,3-17.5,9-23.9c6.1-6.4,13.6-9.7,22.6-9.7
			C393.3,619,400.4,621.7,407.1,626.9z"/>
		<path class="st0" d="M437.1,621l-7.5,61.1h-14.3l7.5-61.1H437.1z M441.6,592c0,2.1-0.8,3.9-2.3,5.4s-3.3,2.3-5.4,2.3
			s-4-0.8-5.5-2.3c-1.5-1.6-2.3-3.5-2.3-5.6s0.7-3.9,2.2-5.4s3.3-2.3,5.4-2.3s4,0.8,5.5,2.4C440.8,587.9,441.6,589.8,441.6,592z"/>
		<path class="st0" d="M477.5,572.6l-8.9,72.2l25.7-23.7h19.1l-32,27.9l25.8,33.2h-17.3l-22.3-29.1l-3.6,29.1h-14.3l13.5-109.6
			L477.5,572.6L477.5,572.6z"/>
		<path class="st0" d="M539.9,621l-7.5,61.1h-14.3l7.5-61.1H539.9z M544.4,592c0,2.1-0.8,3.9-2.3,5.4s-3.3,2.3-5.4,2.3
			s-4-0.8-5.5-2.3c-1.5-1.6-2.3-3.5-2.3-5.6s0.7-3.9,2.2-5.4s3.3-2.3,5.4-2.3c2.1,0,4,0.8,5.5,2.4
			C543.6,587.9,544.4,589.8,544.4,592z"/>
		<path class="st0" d="M573.7,634.3l-5.9,47.8h-14.3l5.9-47.8h-8.1l1.6-13.3h8.1l3.5-28.3h14.3l-3.5,28.3h13.2l-1.6,13.3H573.7z"/>
		<path class="st0" d="M630.3,636.8l-1.4,11.4h-28l1.3-11.4H630.3z"/>
		<path class="st0" d="M712.9,621l-11.8,96.1h-14.3l5-40.5c-5.8,4.7-12.2,7-19.2,7c-8.4,0-15.3-2.8-20.8-8.5
			c-5.4-5.8-8.1-13.1-8.1-21.9c0-9.6,3.1-17.6,9.3-24s13.9-9.7,23.1-9.7c4.5,0,8.4,0.8,11.7,2.3c3.1,1.5,6.3,4.1,9.8,8l1-8.8
			L712.9,621L712.9,621z M695.5,650c0-5.3-1.7-9.7-5-13.2s-7.5-5.3-12.5-5.3c-5.6,0-10.3,2.1-14.1,6.2c-3.9,4.2-5.8,9.3-5.8,15.3
			c0,5.3,1.7,9.8,5,13.4c3.3,3.5,7.6,5.2,12.8,5.2c5.4,0,10-2.1,13.8-6.4C693.5,661,695.5,655.9,695.5,650z"/>
		<path class="st0" d="M785.6,621l-4.3,35.6c-0.3,3-0.8,5.7-1.3,7.9s-1.1,4.1-1.7,5.6c-1.2,2.9-3.2,5.5-6.1,7.7
			c-4.8,3.8-11.2,5.7-19.1,5.7c-7.5,0-13.5-1.9-18-5.8c-4.5-3.9-6.7-9.1-6.7-15.6c0-1,0.1-2.2,0.2-3.5c0.1-1.3,0.3-2.9,0.5-4.6l4-33
			h14.3l-4.2,34.3c-0.2,1.5-0.3,2.8-0.4,3.9c-0.1,1.1-0.1,2-0.1,2.8c0,6.4,3.8,9.7,11.4,9.7c4.1,0,7.1-1.1,9.1-3.2
			c1.9-2.1,3.2-5.8,3.9-11.2l4.5-36.3L785.6,621L785.6,621z"/>
		<path class="st0" d="M826,572.6l-13.4,109.6h-14.3l13.5-109.6H826z"/>
		<path class="st0" d="M900.1,621l-7.5,61.1h-14.3l0.8-6.6c-6.1,5.4-12.5,8-19.1,8c-8.1,0-14.7-2.7-19.8-8.2s-7.7-12.6-7.7-21.3
			c0-10.1,2.9-18.3,8.8-24.8c5.9-6.4,13.5-9.7,22.8-9.7c4.4,0,8.1,0.7,11.2,2.1c3.1,1.4,6.3,3.9,9.5,7.4l1-8H900.1z M882.6,649.8
			c0-5.4-1.6-9.8-4.7-13.2c-3.1-3.4-7.1-5.1-12.1-5.1c-5.4,0-9.9,2.1-13.5,6.3s-5.4,9.4-5.4,15.6c0,5.4,1.5,9.8,4.5,13.2
			s6.9,5.1,11.7,5.1c5.3,0,9.8-2.1,13.7-6.4C880.7,660.9,882.6,655.8,882.6,649.8z"/>
		<path class="st0" d="M965.3,626.9l-1.8,14.6c-2.9-3.8-5.8-6.5-8.4-8.1c-2.6-1.6-5.8-2.4-9.3-2.4c-5.4,0-9.9,2-13.4,6
			s-5.3,9.2-5.3,15.5c0,5.9,1.6,10.7,4.9,14.2c3.3,3.6,7.6,5.4,12.9,5.4c5.1,0,10.3-2.2,15.7-6.6l-1.9,15.1
			c-5.5,2.2-10.8,3.4-15.8,3.4c-9,0-16.2-2.9-21.9-8.8c-5.6-5.8-8.4-13.4-8.4-22.7c0-9.6,3-17.5,9-23.9c6.1-6.4,13.6-9.7,22.6-9.7
			C951.5,619,958.6,621.7,965.3,626.9z"/>
		<path class="st0" d="M1017.4,627.8l-8.1,8.1c-3.8-3.4-7.3-5.1-10.6-5.1c-2.2,0-4,0.6-5.5,1.8s-2.2,2.8-2.2,4.6s0.6,3.3,1.8,4.5
			c1.2,1.3,3.7,2.9,7.6,5.1c5.5,3.1,9.2,5.9,11,8.4c2,2.5,3,5.8,3,9.8c0,5.8-2,10.4-6,13.9c-4.1,3.5-9.4,5.2-16,5.2
			c-9,0-16.4-4-22.3-12.1l9.4-6.6c3.8,4.6,8,6.9,12.3,6.9c2.5,0,4.4-0.6,5.9-1.9c1.5-1.3,2.2-3,2.2-5.1c0-1.8-0.6-3.3-1.9-4.4
			c-0.6-0.6-1.7-1.3-3.2-2.3s-3.6-2.2-6.2-3.6c-4.6-2.6-7.8-5-9.5-7.5c-1.8-2.6-2.7-5.7-2.7-9.3c0-5.5,2-10.1,6.1-13.8
			c4.1-3.6,9.2-5.4,15.5-5.4C1005.2,619,1011.6,621.9,1017.4,627.8z"/>
	</g>
	<g>
		<path class="st0" d="M845.7,481c31.5-40.4,50.3-91.3,50.3-146.5c0-131.8-106.8-238.6-238.6-238.6S418.8,202.7,418.8,334.5
			s106.8,238.6,238.6,238.6c54.9,0,105.5-18.6,145.8-49.8l-68.4-68.4c-22.5,14.6-49.3,23.2-78.1,23.2
			c-79.2,0-143.7-64.5-143.7-143.7s64.5-143.7,143.7-143.7s143.7,64.5,143.7,143.7c0,28.8-8.6,55.6-23.2,78.1L845.7,481z"/>
		<path class="st0" d="M555.4,334.4c0,55.9,45.4,101.3,101.3,101.3c55.9,0,101.3-45.5,101.3-101.3c0-55.9-45.4-101.3-101.3-101.3
			C600.8,233.1,555.4,278.5,555.4,334.4z M618,331.2l30.6-21.7c0.7-0.5,1.6-0.4,2.1,0.3c0.2,0.2,0.3,0.5,0.3,0.7
			c0.1,0.5-0.1,1.1-0.6,1.4l-30.6,21.7c-0.2,0.2-0.5,0.3-0.7,0.3c-0.5,0.1-1.1-0.1-1.4-0.6c-0.1-0.2-0.2-0.5-0.3-0.7
			C617.3,332.1,617.5,331.5,618,331.2z M592.9,287.1c4.3-0.8,8.5,2.1,9.3,6.4s-2.1,8.5-6.4,9.3c-4.4,0.8-8.5-2.1-9.3-6.4
			S588.6,287.9,592.9,287.1z M593.7,309.5c0-0.8,0.6-1.5,1.4-1.6c0.8-0.1,1.5,0.4,1.5,1.2v0.1l1.1,12.5c0.1,0.8-0.4,1.5-1.2,1.6
			h-0.1c-0.8,0.1-1.5-0.4-1.6-1.2V322L593.7,309.5z M583.6,343.7c0-8.3,6.7-15,15-15s15,6.7,15,15c0,8.3-6.7,15-15,15
			S583.6,352,583.6,343.7z M606.2,364c0.1-0.4,0.4-0.7,0.8-0.9c0.7-0.3,1.6,0,2,0.7l7.6,15.1c0.2,0.4,0.2,0.8,0.1,1.1
			c-0.1,0.4-0.4,0.7-0.8,0.9c-0.4,0.2-0.8,0.2-1.1,0.1c-0.4-0.1-0.8-0.4-0.9-0.8l-7.6-15.1C606.1,364.7,606.1,364.3,606.2,364z
			 M636.9,399c-1.8,6.3-8.4,9.9-14.7,8.1c-6.3-1.8-9.9-8.4-8.1-14.7c1.8-6.3,8.4-9.9,14.7-8.1C635,386.1,638.7,392.7,636.9,399z
			 M657.9,364.7c-0.2,0.6-0.8,1-1.4,1c-0.2,0-0.3,0-0.5-0.1l-36.4-13.4c-0.6-0.2-1-0.8-1-1.4c0-0.2,0-0.3,0.1-0.5
			c0.3-0.8,1.1-1.2,1.9-0.9l36.4,13.4c0.6,0.2,1,0.8,1,1.4C658,364.4,658,364.5,657.9,364.7z M696.1,385.1c-7.3,7.3-19,7.3-26.3,0
			s-7.3-19,0-26.3c7.3-7.3,19-7.3,26.3,0S703.4,377.8,696.1,385.1z M674.1,318c-0.1-0.7,0.3-1.4,1-1.6c0.8-0.3,1.6,0.1,1.9,0.9
			l4.3,31.2c0.1,0.1,0.1,0.2,0.1,0.3c0.1,0.7-0.3,1.4-1,1.6c-0.1,0.1-0.2,0.1-0.3,0.1c-0.7,0.1-1.4-0.3-1.6-1l-4.3-31.2
			C674.1,318.2,674.1,318.1,674.1,318z M719.2,287c5.2,0,9.5,4.2,9.4,9.4c0,5.2-4.2,9.4-9.4,9.4s-9.4-4.2-9.4-9.4S714,287,719.2,287
			z M694.2,294.8l8.4,0.1c0.8,0,1.5,0.7,1.5,1.5s-0.7,1.5-1.5,1.5l-8.4-0.1c-0.8,0-1.5-0.7-1.5-1.5S693.4,294.8,694.2,294.8z
			 M669.3,281c8.3,0,15,6.8,15,15s-6.8,15-15,15c-8.3,0-15-6.7-15-15S661.1,281,669.3,281z"/>
	</g>
</g>
</svg>
